# xmcd CD database file
#
# Track frame offsets:
#	150
#	21726
#	42496
#	64059
#
# Disc length: 1126 seconds
#
# Revision: 2
# Processed by: cddbd v1.5.2PL0 Copyright (c) Steve Scherf et al.
# Submitted via: CDex 1.70beta2
#
DISCID=37046404
DTITLE=mihimaru GT - diverge
DYEAR=1900
DGENRE=Blues
TTITLE0=diverge
TTITLE1=ええがな
TTITLE2=diverge (Instrumental)
TTITLE3=ええがな (Instrumental)
EXTD=
EXTT0=
EXTT1=
EXTT2=
EXTT3=
PLAYORDER=
